<svg width="73" height="73" viewBox="0 0 73 73" fill="none" xmlns="http://www.w3.org/2000/svg">
<g clip-path="url(#clip0_22569_443959)">
<path d="M61.5098 37.2969C64.2168 40.1543 64.2168 44.666 61.5098 47.5234L47.8242 61.0586C44.9668 63.916 40.4551 63.916 37.5977 61.0586L10.377 33.8379C7.66992 31.1309 7.66992 26.4688 10.377 23.6113L24.0625 10.0762C26.7695 7.21875 31.4316 7.21875 34.2891 10.0762L61.5098 37.2969ZM26.0176 15.4902C27.3711 16.8438 27.3711 18.9492 26.0176 20.3027L20.6035 25.7168C19.25 27.0703 17.1445 27.0703 15.791 25.7168L15.4902 25.416L13.8359 27.0703C12.9336 27.9727 12.9336 29.4766 13.8359 30.5293L41.0566 57.75C41.959 58.6523 43.4629 58.6523 44.3652 57.75L58.0508 44.0645C58.9531 43.1621 58.9531 41.6582 58.0508 40.7559L30.8301 13.5352C29.9277 12.4824 28.4238 12.4824 27.3711 13.5352L25.7168 15.1895L26.0176 15.4902Z" fill="#85ACB0"/>
<path d="M16.0918 62.5625C14.8887 61.8105 13.6855 60.7578 12.6328 59.7051C7.51953 54.4414 4.8125 47.6738 4.8125 40.9062H0C0 48.877 3.1582 56.998 9.17383 63.0137C10.5273 64.3672 11.8809 65.5703 13.3848 66.623L14.8887 67.5254C16.6934 68.5781 18.498 69.4805 20.3027 70.2324L22.2578 70.834L24.2129 71.4355C26.0176 71.7363 27.8223 72.0371 29.627 72.1875H31.2812H37.1465L24.6641 59.7051L21.2051 63.0137L24.6641 66.4727C24.3633 66.4727 24.0625 66.3223 23.6113 66.3223L22.1074 65.7207C20.4531 65.1191 18.9492 64.3672 17.4453 63.4648L16.0918 62.5625Z" fill="#FF444F"/>
<path d="M56.2461 9.47461C57.4492 10.377 58.6523 11.4297 59.7051 12.4824C64.9688 17.7461 67.5254 24.5137 67.5254 31.2812H72.3379C72.3379 23.1602 69.1797 15.1895 63.1641 9.17383C61.8105 7.82031 60.457 6.61719 58.9531 5.56445L57.4492 4.66211C55.7949 3.45898 53.8398 2.70703 52.0352 1.95508L50.0801 1.35352L48.125 0.751953C46.3203 0.300781 44.5156 0.150391 42.8613 0H41.0566H35.1914L47.6738 12.4824L51.1328 9.17383L47.6738 5.56445C47.9746 5.71484 48.4258 5.86523 48.7266 5.86523L50.3809 6.4668C51.8848 7.06836 53.5391 7.82031 54.8926 8.72266L56.2461 9.47461Z" fill="#FF444F"/>
</g>
<defs>
<clipPath id="clip0_22569_443959">
<rect width="72.3379" height="72.1875" fill="white"/>
</clipPath>
</defs>
</svg>
