<svg width="14" height="16" viewBox="0 0 14 16" fill="none" xmlns="http://www.w3.org/2000/svg">
<path d="M3 0H12H13C13.5312 0 14 0.46875 14 1V11C14 11.5625 13.5312 12 13 12V14C13.5312 14 14 14.4688 14 15C14 15.5625 13.5312 16 13 16H12H3C1.34375 16 0 14.6562 0 13V3C0 1.34375 1.34375 0 3 0ZM3 12C2.4375 12 2 12.4688 2 13C2 13.5625 2.4375 14 3 14H11V12H3ZM4 4.5C4 4.78125 4.21875 5 4.5 5H10.5C10.75 5 11 4.78125 11 4.5C11 4.25 10.75 4 10.5 4H4.5C4.21875 4 4 4.25 4 4.5ZM4.5 6C4.21875 6 4 6.25 4 6.5C4 6.78125 4.21875 7 4.5 7H10.5C10.75 7 11 6.78125 11 6.5C11 6.25 10.75 6 10.5 6H4.5Z" fill="currentColor" opacity="0.72"/>
</svg>
